<?xml version="1.0" encoding="utf-8"?>
<!-- Generator: Adobe Illustrator 16.0.0, SVG Export Plug-In . SVG Version: 6.00 Build 0)  -->
<!DOCTYPE svg PUBLIC "-//W3C//DTD SVG 1.1//EN" "http://www.w3.org/Graphics/SVG/1.1/DTD/svg11.dtd">
<svg version="1.1" xmlns="http://www.w3.org/2000/svg" xmlns:xlink="http://www.w3.org/1999/xlink" x="0px" y="0px" width="379px"
	 height="66px" viewBox="0 0 379 66" style="enable-background:new 0 0 379 66;" xml:space="preserve">
<style type="text/css">
<![CDATA[
	.st0{display:inline;}
	.st1{display:none;}
]]>
</style>
<g id="Layer_2" class="st1">
	<rect x="-130" y="-286.5" class="st0" width="640" height="640"/>
</g>
<g id="Layer_1">
	<g>
		<g>
			<path d="M254.119,4.502c0.119,0,0.255,0.014,0.388,0.038h1.545c0.532,0,1.01,0.213,1.338,0.604
				c0.33,0.394,0.451,0.884,0.364,1.459V33.36c0,5.115-1.001,9.478-3.151,13.738c-5.02,9.932-15.036,16.104-26.139,16.104
				c-1.677,0-3.371-0.145-5.035-0.432c-12.802-2.213-22.489-12.363-24.103-25.256c-0.26-2.076-0.245-4.123-0.237-6.105
				c0.006-0.429,0.008-0.858,0.008-1.287V6.637c-0.114-0.567-0.008-1.051,0.309-1.454c0.318-0.408,0.813-0.643,1.357-0.643h2.007
				c0.54,0,1.036,0.233,1.357,0.641c0.317,0.406,0.42,0.896,0.309,1.456v21.302l-0.006,1.456c-0.019,4.57-0.036,8.888,1.649,13.205
				c3.622,9.271,12.376,15.266,22.307,15.268c0,0,0,0,0.003,0c1.49,0,2.999-0.141,4.476-0.42
				c11.329-2.133,19.552-12.051,19.552-23.579V6.232C252.416,5.261,253.166,4.502,254.119,4.502 M254.119,3.502
				c-1.516,0-2.703,1.199-2.703,2.729v27.637c0,11.049-7.88,20.552-18.736,22.596c-1.413,0.267-2.856,0.402-4.291,0.402
				c-9.517-0.002-17.906-5.745-21.378-14.632c-1.616-4.139-1.6-8.363-1.581-12.836l0.006-1.457V6.727
				c0.134-0.807-0.045-1.553-0.521-2.162c-0.515-0.653-1.296-1.025-2.146-1.025h-2.007c-0.854,0-1.637,0.375-2.146,1.028
				c-0.477,0.607-0.656,1.353-0.521,2.16v23.394c0,0.424-0.002,0.849-0.008,1.273l-0.001,0.148
				c-0.008,1.968-0.016,4.002,0.246,6.094c1.668,13.333,11.685,23.829,24.925,26.117c1.716,0.296,3.467,0.446,5.205,0.446
				c11.482,0,21.84-6.381,27.031-16.652c2.224-4.404,3.259-8.913,3.259-14.189V6.672c0.105-0.828-0.101-1.577-0.598-2.17
				c-0.521-0.62-1.269-0.961-2.104-0.961h-1.462C254.428,3.516,254.268,3.502,254.119,3.502L254.119,3.502z"/>
		</g>
		<g>
			<path d="M347.31,3.754l28.506,58.656h-60.499l27.805-58.656H347.31 M323.93,56.615h43.12L345.238,11.85L323.93,56.615
				 M347.31,2.754h-4.188l-0.903,0.572l-27.805,58.655l0.903,1.429h60.499l0.899-1.438L348.209,3.317L347.31,2.754L347.31,2.754z
				 M325.514,55.615l19.735-41.46l20.201,41.46H325.514L325.514,55.615z"/>
		</g>
		<g>
			<path d="M311.898,4.538v5.224H276.55c-5.926,0-10.747,4.82-10.747,10.746c0,5.927,4.821,10.749,10.747,10.749h23.281
				c8.807,0,15.971,7.166,15.974,15.97c0,4.266-1.661,8.275-4.678,11.293c-3.016,3.018-7.027,4.68-11.295,4.68h-39.254v-5.225
				h39.254c5.929,0,10.749-4.82,10.749-10.748s-4.82-10.75-10.749-10.75H276.55c-8.807,0-15.972-7.162-15.972-15.969
				c0-8.806,7.165-15.97,15.972-15.97H311.898 M311.898,3.538H276.55c-9.358,0-16.972,7.613-16.972,16.97
				s7.613,16.969,16.972,16.969h23.282c5.376,0,9.749,4.374,9.749,9.75c0,5.375-4.373,9.748-9.749,9.748h-39.254l-1,1v5.225l1,1
				h39.254c4.535,0,8.798-1.766,12.002-4.973c3.205-3.206,4.971-7.468,4.971-12c-0.003-9.357-7.617-16.97-16.974-16.97H276.55
				c-5.375,0-9.747-4.374-9.747-9.749c0-5.374,4.372-9.746,9.747-9.746h35.349l1-1V4.538L311.898,3.538L311.898,3.538z"/>
		</g>
		<g>
			<path d="M138.981,4.51c0.109,0,0.23,0.012,0.35,0.03h26.758c5.116,0,9.482,1.002,13.738,3.152
				c11.587,5.854,17.885,18.382,15.671,31.172c-2.213,12.803-12.361,22.49-25.253,24.104c-1.678,0.211-3.355,0.24-4.775,0.24
				c-0.438,0-2.185-0.01-2.619-0.01h-23.476c-0.11,0.023-0.254,0.047-0.423,0.047c-0.476,0-0.912-0.189-1.23-0.531
				c-0.291-0.311-0.451-0.732-0.451-1.18v-2.008c0-0.963,0.739-1.713,1.683-1.713c0.17,0,0.312,0.023,0.416,0.047h21.301
				l2.896,0.006c3.971,0,7.857-0.123,11.762-1.65c10.735-4.195,16.981-15.459,14.849-26.786
				c-2.132-11.33-12.047-19.554-23.575-19.554h-27.638c-0.543,0-1.022-0.22-1.35-0.62c-0.328-0.401-0.444-0.895-0.343-1.47V6.244
				C137.271,5.256,138.007,4.51,138.981,4.51 M138.981,3.51c-1.52,0-2.711,1.201-2.711,2.733v1.464
				c-0.123,0.824,0.073,1.577,0.568,2.183c0.521,0.637,1.274,0.987,2.124,0.987h27.638c11.048,0,20.549,7.881,22.592,18.739
				c2.043,10.853-3.941,21.648-14.229,25.669c-3.734,1.461-7.522,1.582-11.398,1.582l-2.894-0.006h-21.203
				c-0.171-0.031-0.344-0.047-0.516-0.047c-1.504,0-2.683,1.191-2.683,2.713v2.008c0,0.705,0.256,1.367,0.722,1.863
				c0.508,0.546,1.205,0.848,1.96,0.848c0.171,0,0.342-0.016,0.519-0.047h23.379c0.216,0,0.757,0.002,1.3,0.005
				c0.549,0.002,1.099,0.005,1.319,0.005c1.447,0,3.162-0.029,4.9-0.248c13.33-1.668,23.825-11.685,26.113-24.926
				c2.289-13.227-4.223-26.182-16.206-32.235c-4.401-2.224-8.91-3.26-14.189-3.26h-26.686C139.253,3.521,139.112,3.51,138.981,3.51
				L138.981,3.51z"/>
		</g>
		<g>
			<path d="M132.84,4.541v5.34H79.355v21.317h52.369v5.343H79.355v21.314h53.484v5.344H74.013V4.541H132.84 M132.84,3.541H74.013
				l-1,1v58.659l1,1h58.827l1-1v-5.344l-1-1H80.355V37.541h51.369l1-1v-5.343l-1-1H80.355V10.88h52.484l1-1v-5.34L132.84,3.541
				L132.84,3.541z"/>
		</g>
		<g>
			<path d="M68.615,4.541v58.659h-5.563V17.331L38.808,63.199h-4.315L9.749,17.184v46.015H4.185V4.541h4.933l27.342,50.432
				L63.681,4.541H68.615 M68.615,3.541h-4.935l-0.88,0.525L36.457,52.871L9.996,4.064L9.117,3.541H4.185l-1,1v58.659l1,1h5.564l1-1
				V21.155l22.862,42.518l0.881,0.526h4.315l0.884-0.533l22.36-42.304v41.837l1,1h5.563l1-1V4.541L68.615,3.541L68.615,3.541z"/>
		</g>
	</g>
</g>
</svg>
